PathFileType	4	(X/Y/Z)	C:/Users/beibeiliu/ov580/test_trc/User1\sequence.1_training_dense_left.trc
DataRate	CameraRate	NumFrames	NumMarkers	Units	OrigDataRate	OrigDataStartFrame	OrigNumFrames
120	120	18	19	mm	120	1	51
Frame#	Time	ThumbCMC			ThumbMCP			ThumbIP			ThumbTip			IndexMCP			IndexPIP			IndexTip			MiddleMCP			MiddlePIP			MiddleTip			RingMCP			RingPIP			RingTip			PinkyMCP			PinkyPIP			PinkyTip			BackHand1			BackHand2			BackHand3	
		X0	Y0	Z0	X1	Y1	Z1	X2	Y2	Z2	X3	Y3	Z3	X4	Y4	Z4	X5	Y5	Z5	X6	Y6	Z6	X7	Y7	Z7	X8	Y8	Z8	X9	Y9	Z9	X10	Y10	Z10	X11	Y11	Z11	X12	Y12	Z12	X13	Y13	Z13	X14	Y14	Z14	X15	Y15	Z15	X16	Y16	Z16	X17	Y17	Z17	X18	Y18	Z18	
0	0	-137.943	78.9653	99.3109	-116.109	63.4331	75.2947	-100.609	57.6849	50.815	-92.5864	46.0489	25.4373	-163.738	102.822	19.9364	-160.201	103.155	-8.24428	-155	93.9112	-39.7815	-191.971	99.1259	13.9257	-195.714	103.069	-16.6003	-196.221	97.9693	-48.4399	-208.558	83.7583	16.2719	-213.907	87.836	-8.51991	-215.127	84.5968	-35.7544	-222.855	53.6403	28.7397	-227.06	52.6463	10.1556	-227.988	56.3959	-17.4923	-208.081	77.7776	69.833	-210.859	71.9995	107.945	-180.795	93.6799	90.2687	
1	0.00833333	-139.904	78.2508	96.475	-116.073	64.4861	73.6561	-106.402	57.3824	49.5789	-93.9374	46.0416	25.789	-165.325	102.691	18.3372	-162.712	102.067	-12.8713	-157.089	91.2566	-40.6989	-192.506	99.7118	11.2594	-195.471	102.965	-14.4093	-196.94	97.4726	-48.6927	-212.842	80.6685	17.9915	-213.413	87.3168	-9.29873	-215.648	85.1075	-40.9388	-220.059	53.7446	32.0406	-228.137	51.7215	4.73732	-231.262	55.2407	-16.4381	-209.884	74.0393	72.5439	-211.003	73.2608	105.135	-180.325	93.2821	88.0785	
2	0.0166667	-140.31	77.4475	98.3702	-118.247	64.0238	76.1629	-102.982	57.6127	46.8095	-95.8295	46.9506	29.966	-161.31	105.439	15.2294	-163.266	102.025	-10.3465	-155.159	94.9517	-36.5137	-194.397	97.8745	14.7059	-195.723	102.602	-15.4331	-194.689	99.8082	-46.6697	-208.357	82.5843	20.084	-214.087	87.16	-13.5262	-216.526	84.3142	-39.631	-222.152	53.631	30.9949	-227.97	51.1706	7.12248	-228.855	54.2104	-16.5737	-211.017	74.1944	72.1776	-209.856	71.8366	104.684	-181.887	91.4594	90.7397	
3	0.025	-137.614	79.367	94.0365	-118.954	63.7762	73.0343	-105.026	56.9967	48.7233	-94.6945	46.159	31.2546	-164.131	103.838	15.8111	-160.217	104.628	-13.5209	-160.252	92.1019	-35.6726	-192.626	98.5047	15.8538	-196.673	102.472	-17.5588	-197.526	97.9778	-47.459	-209.185	83.6052	17.5297	-215.508	86.7644	-12.0975	-215.463	85.8734	-34.5103	-218.504	55.5324	31.7951	-225.728	54.9229	7.30589	-231.286	56.2379	-16.2855	-209.52	74.8453	69.3452	-213.768	70.467	103.332	-181.185	93.0772	88.0898	
4	0.0333333	-141.915	77.0502	96.8132	-117.474	64.26	71.2611	-102.024	57.3642	50.4053	-91.7221	46.2008	29.2526	-162.573	105.457	18.9733	-163.06	104.828	-9.04636	-157.806	96.0618	-35.9035	-193.027	101.872	10.5458	-194.952	103.321	-20.0983	-196.645	99.4653	-46.1988	-213.306	79.922	17.8517	-215.557	87.6487	-13.7246	-217.515	83.6422	-39.5691	-223.781	51.9089	29.4548	-224.866	54.1964	8.10042	-231.2	54.4011	-17.4976	-211.389	75.4899	70.1581	-209.354	73.8542	102.607	-181.676	91.6568	87.4967	
5	0.0416667	-142.113	80.035	92.7214	-118.778	67.4941	72.2871	-103.714	61.8248	47.1189	-89.4828	51.393	29.3742	-162.892	106.101	19.5588	-165.205	102.416	-13.5477	-158.3	95.6153	-36.2135	-196.795	97.6281	10.4966	-196.965	102.017	-18.2274	-198.978	94.7728	-48.3951	-214.023	78.3735	16.9405	-217.52	83.0474	-15.0672	-216.915	78.7444	-38.275	-221.697	52.3376	28.8865	-223.696	51.5938	8.36924	-225.867	47.9475	-19.0108	-208.782	75.1854	73.0817	-211.567	70.6153	103.498	-180.138	93.2476	88.6397	
6	0.05	-144.42	88.3534	94.5594	-118.68	78.4178	73.5142	-106.191	72.1675	53.2436	-91.4526	66.4428	33.5126	-169.687	105.483	13.4621	-164.947	105.213	-10.0853	-159.79	93.8719	-36.6024	-199.084	94.5454	7.96799	-197.18	98.177	-18.4343	-194.53	90.3647	-52.7205	-208.677	76.9571	16.5743	-212.221	77.3753	-15.7741	-205.427	72.7648	-45.3975	-218.269	45.9994	26.2286	-216.669	43.6525	-0.219142	-211.843	41.4191	-23.9927	-208.418	72.1051	71.3243	-215.347	67.7698	103.124	-188.832	94.0928	88.7299	
7	0.0583333	-160.398	102.021	102.047	-131.747	101.422	80.672	-114.424	103.7	54.1806	-97.7128	101.609	38.7844	-176.432	105.947	13.033	-167.092	103.231	-14.8172	-159.314	92.0974	-35.3953	-196.561	87.069	3.94341	-191.705	86.392	-23.079	-177.459	81.1044	-56.3721	-201.454	67.8149	11.1501	-197.088	62.5897	-20.5298	-182.785	58.3804	-42.784	-202.456	38.5076	21.1747	-194.425	38.1634	1.76229	-178.243	37.4713	-24.3726	-213.396	60.9869	67.3609	-219.507	61.1282	97.3747	-200.521	96.5869	85.1379	
8	0.0666667	-200.404	118.064	93.2108	-177.956	135.891	74.833	-162.777	142.977	53.9481	-143.636	149.466	34.181	-192.27	100.069	8.94725	-176.91	97.5527	-18.6319	-159.461	96.8245	-39.6369	-190.38	74.9036	2.4718	-174.159	72.3765	-27.0181	-155.395	74.3146	-49.998	-181.197	55.6107	8.70005	-165.694	54.9339	-16.2652	-144.573	62.4025	-35.6605	-170.088	35.8494	31.3825	-157.594	40.5387	12.0812	-140.116	46.6319	-10.3752	-204.664	52.0375	63.5039	-216.799	48.0548	96.5199	-219.26	84.728	76.8731	
9	0.075	-233.333	112.224	86.7183	-226.993	143.131	66.7145	-218.171	157.376	46.8895	-200.139	166.616	30.0923	-213.454	92.5295	2.95903	-200.001	89.8989	-19.6966	-182.278	93.719	-43.2217	-196.388	72.1023	-1.92335	-182.315	75.8627	-27.6201	-161.111	83.0796	-49.2155	-176.902	62.8672	8.12088	-157.165	64.32	-11.1545	-138.482	79.3611	-27.986	-161.538	53.5339	35.5447	-142.487	59.2587	17.0789	-129.897	70.3671	-1.51339	-201.045	49.0716	64.5839	-213.05	45.9667	93.0511	-232.544	75.0717	73.3724	
10	0.0833333	-246.643	111.862	86.4776	-241.904	138.217	67.2377	-237.023	152.914	43.381	-225.01	165.657	21.5462	-238.18	86.1096	3.73174	-233.137	86.0276	-22.7653	-215.808	89.2874	-49.6163	-221.661	66.8197	-4.79493	-212.614	70.7103	-30.5669	-191.925	77.3563	-55.5752	-196.113	55.8785	6.44389	-183.875	62.1915	-19.461	-167.222	78.6241	-39.7023	-179.756	51.5954	27.9504	-164.422	56.9276	6.64241	-153.197	70.2846	-12.3522	-215.163	47.733	63.4635	-221.595	46.3508	92.3657	-244.56	70.9087	75.1436	
11	0.0916667	-223.373	115.632	94.0405	-212.677	142.434	70.7552	-207.313	151.764	44.2935	-196.119	152.326	20.6349	-248.119	100.342	9.53894	-247.176	97.9131	-19.3211	-236.559	94.4489	-43.044	-245.583	75.7986	2.6723	-242.097	74.3572	-29.8774	-226.426	76.78	-60.9806	-230.672	54.9566	8.05902	-226.025	58.7486	-22.5434	-208.859	61.567	-45.6127	-213.333	42.3587	18.0654	-206.069	42.361	-0.644542	-192.119	49.0969	-26.9327	-236.444	50.442	63.171	-235.921	47.1675	96.2235	-245.776	86.9545	80.0887	
12	0.1	-185.183	108.436	91.1228	-161.822	114.93	67.6082	-149.575	121.825	41.2364	-142.082	117.37	15.5211	-220.21	120.31	13.2818	-222.395	121.275	-13.2211	-220.098	113.549	-37.6194	-238.07	103.135	8.05738	-241.97	102.27	-23.6855	-237.94	97.1282	-52.2253	-244.783	75.4676	13.8333	-245.44	82.1363	-18.4279	-238.014	76.3941	-44.2184	-238.365	49.4478	26.5052	-240.282	49.3906	2.95274	-233.874	52.2077	-28.1449	-236.523	73.1107	66.1791	-236.345	65.963	102.275	-221.497	99.4276	87.142	
13	0.108333	-153.165	82.7716	92.7015	-128.511	76.349	64.4681	-119.352	73.127	37.3133	-115.371	62.6297	13.1641	-185.982	112.748	17.7545	-187.313	117.361	-9.23713	-187.682	111.378	-40.4822	-213.54	111.78	11.9041	-217.295	116.889	-17.0785	-219.956	114.275	-45.6594	-230.454	94.062	19.4204	-236.683	100.339	-5.56466	-237.591	99.4537	-33.92	-239.696	68.1704	29.7225	-249.572	66.5201	6.83951	-250.806	70.1857	-18.4281	-221.069	81.3294	69.5255	-222.449	77.0788	103.657	-193.185	97.5741	91.4073	
14	0.116667	-140.739	67.8136	93.24	-121.807	49.4653	70.76	-111.007	40.0103	44.7441	-108.316	28.4198	22.3723	-166.413	100.688	14.7244	-166.032	102.132	-11.6357	-164.809	94.3736	-39.9425	-193.472	103.182	14.5424	-197.356	109.047	-15.6241	-204.151	105.892	-50.2746	-215.83	91.6351	21.6278	-222.761	99.9998	-5.49285	-224.215	100.058	-30.3588	-235.738	67.3736	34.2268	-244.05	70.2218	17.0084	-252.005	74.9708	-13.1046	-213.355	79.4861	73.9266	-210.235	76.0598	104.015	-179.459	90.2478	89.0054	
15	0.125	-136.94	62.8336	97.3925	-118.246	41.3891	75.7482	-104.196	29.7332	51.0444	-97.4305	14.4352	37.4913	-153.337	87.2216	16.334	-148.969	85.7407	-11.599	-150.746	73.5295	-41.2193	-186.135	87.7795	12.9165	-184.13	90.4945	-21.7721	-187.435	84.086	-49.4151	-207.104	77.2	20.4333	-209.018	81.9953	-8.19512	-211.979	78.3191	-35.2188	-226.382	55.2422	34.1871	-230.761	56.7885	12.9453	-234.439	58.7252	-15.0593	-204.612	73.0396	69.9365	-207.158	73.888	104.022	-172.903	88.2972	86.5301	
16	0.133333	-139.377	77.4694	101.178	-111.993	58.4364	80.3217	-97.5906	47.8769	62.8173	-84.0309	33.4402	44.0393	-153.002	83.1442	16.4415	-146.925	74.8521	-14.4096	-140.961	63.0815	-36.5456	-182.635	73.1022	9.52612	-180.11	69.5483	-23.661	-175.686	59.0706	-51.0766	-196.344	61.2148	13.5484	-199.284	57.2326	-16.6671	-193.949	48.0905	-43.6686	-211.853	37.1593	28.9994	-212.997	33.0013	8.80697	-208.164	27.8441	-17.1028	-204.994	65.4106	70.0071	-210.044	72.0611	97.2276	-180.19	89.1867	81.4176	
17	0.141667	-154.393	100.46	96.3015	-124.01	92.2554	85.1069	-102.687	88.2221	66.7198	-81.9135	79.205	50.5195	-158.58	87.3654	13.1367	-148.655	74.2409	-15.2178	-136.352	62.7573	-33.9117	-179.132	63.4158	1.67601	-170.027	57.4191	-24.2551	-157.018	40.6938	-52.4752	-188.028	43.6056	10.8302	-181.167	36.1872	-14.9569	-162.282	28.7736	-37.3467	-190.51	22.9607	31.967	-182.532	11.1693	9.37295	-170.052	7.13767	-9.09501	-204.013	57.1085	63.1048	-216.263	60.5936	91.4085	-195.005	87.6308	76.2711	
